<?xml version="1.0" encoding="UTF-8" standalone="no"?>
<!-- Created with Inkscape (http://www.inkscape.org/) -->

<svg
   version="1.1"
   id="svg2"
   width="1056"
   height="816"
   viewBox="0 0 1056 816"
   xmlns="http://www.w3.org/2000/svg"
   xmlns:svg="http://www.w3.org/2000/svg">
  <defs
     id="defs6">
    <clipPath
       clipPathUnits="userSpaceOnUse"
       id="clipPath20">
      <path
         d="M 0,612 H 792 V 0 H 0 Z"
         id="path18" />
    </clipPath>
  </defs>
  <g
     id="g8"
     transform="matrix(1.3333333,0,0,-1.3333333,0,816)">
    <g
       id="g10"
       transform="translate(78.4181,263.7396)">
      <path
         d="M 0,0 H 638.577"
         style="fill:none;stroke:#ed1c24;stroke-width:2;stroke-linecap:butt;stroke-linejoin:miter;stroke-miterlimit:10;stroke-dasharray:none;stroke-opacity:1"
         id="path12" />
    </g>
    <g
       id="g14">
      <g
         id="g16"
         clip-path="url(#clipPath20)">
        <g
           id="g22"
           transform="translate(77.723,289.9721)">
          <path
             d="m 0,0 1.65,21.472 2.291,47.561 1.099,34.516 c 0.061,3.14 0.093,6.311 0.093,9.513 0,2.356 -0.032,5.888 -0.093,10.6 7.814,-0.122 14.162,-0.182 19.045,-0.182 3.906,0 9.339,0.091 16.298,0.271 6.959,0.182 12.483,0.273 16.574,0.273 8.424,0 14.619,-0.604 18.588,-1.813 4.21,-1.328 7.903,-3.412 11.078,-6.25 3.173,-2.839 5.585,-6.251 7.233,-10.238 1.832,-4.47 2.748,-9.271 2.748,-14.404 0,-7.791 -1.969,-14.873 -5.906,-21.244 C 86.76,63.702 81.312,58.945 74.353,55.806 67.394,52.665 59.671,51.095 51.186,51.095 c -4.152,0 -8.577,0.422 -13.277,1.268 -1.343,6.281 -2.87,12.17 -4.578,17.666 3.774,-0.785 7.52,-1.176 11.234,-1.176 5.053,0 9.438,0.753 13.152,2.263 3.715,1.509 6.669,3.971 8.861,7.384 2.192,3.411 3.288,7.262 3.288,11.55 0,2.537 -0.458,4.862 -1.371,6.977 -0.914,2.113 -2.239,3.805 -3.974,5.073 -1.735,1.269 -3.655,2.13 -5.755,2.582 -2.102,0.452 -5.102,0.68 -8.999,0.68 -3.411,0 -6.852,-0.062 -10.323,-0.182 -3.471,-0.122 -6.547,-0.182 -9.227,-0.182 C 29.489,93.161 28.944,81.837 28.581,71.026 L 27.489,36.42 C 27.124,24.158 26.942,15.159 26.942,9.421 26.942,7.247 26.972,4.106 27.034,0 L 13.747,0.182 C 12.036,0.182 7.453,0.12 0,0"
             style="fill:#ed1c24;fill-opacity:1;fill-rule:nonzero;stroke:none"
             id="path24" />
        </g>
        <g
           id="g26"
           transform="translate(220.8352,289.9721)">
          <path
             d="m 0,0 c 0.724,6.704 1.464,15.46 2.22,26.273 0.755,10.81 1.192,19.416 1.314,25.819 l -40.985,71.57 c 6.891,-0.122 12.256,-0.182 16.097,-0.182 3.657,0 8.536,0.06 14.634,0.182 2.749,-6.277 6.749,-14.228 12.003,-23.854 5.253,-9.625 9.773,-18.453 13.56,-26.478 l 27.236,43.451 c 0.915,1.508 2.26,3.802 4.034,6.881 5.916,-0.122 11.161,-0.182 15.737,-0.182 2.378,0 7.288,0.06 14.729,0.182 L 30.583,50.189 29.47,27.269 C 29.099,20.505 28.821,11.415 28.635,0 22.108,0.12 17.351,0.182 14.363,0.182 11.313,0.182 6.526,0.12 0,0"
             style="fill:#ed1c24;fill-opacity:1;fill-rule:nonzero;stroke:none"
             id="path28" />
        </g>
        <g
           id="g30"
           transform="translate(310.6552,289.9721)">
          <path
             d="m 0,0 2.388,20.475 6.062,71.931 2.112,31.256 c 8.719,-0.122 15.09,-0.182 19.113,-0.182 3.23,0 9.115,0.06 17.651,0.182 0.979,-4.892 1.712,-8.366 2.202,-10.418 0.489,-2.055 1.438,-5.345 2.846,-9.875 1.406,-4.53 3.211,-10.027 5.415,-16.488 3.242,-9.786 6.149,-19.449 8.719,-28.991 l 6.975,-25.911 12.247,33.249 17.822,43.214 c 0.608,1.449 1.232,3.126 1.872,5.027 0.64,1.904 1.721,5.301 3.245,10.193 7.268,-0.122 13.743,-0.182 19.424,-0.182 3.785,0 9.833,0.06 18.14,0.182 -0.856,-17.395 -1.495,-36.616 -1.92,-57.664 -0.425,-21.049 -0.637,-36.767 -0.637,-47.155 0,-5.014 0.06,-11.294 0.183,-18.843 -6.046,0.12 -10.166,0.182 -12.364,0.182 -3.177,0 -7.39,-0.062 -12.641,-0.182 0.364,6.16 0.606,11.233 0.728,15.22 l 1.542,53.904 c 0.182,7.61 0.273,15.098 0.273,22.467 L 121.306,98.928 87.648,10.781 83.727,0 C 77.779,0.12 73.701,0.182 71.496,0.182 68.736,0.182 64.414,0.12 58.527,0 L 42.769,55.806 c -0.549,1.993 -1.833,6.161 -3.848,12.502 L 33.24,86.79 c -0.549,1.75 -0.961,3.184 -1.236,4.303 -0.274,1.116 -0.871,3.608 -1.787,7.474 L 29.026,86.97 C 28.719,83.286 28.261,77.125 27.65,68.489 L 24.075,12.321 C 23.952,9.542 23.86,5.436 23.8,0 L 11.991,0.182 C 9.977,0.182 5.981,0.12 0,0"
             style="fill:#ed1c24;fill-opacity:1;fill-rule:nonzero;stroke:none"
             id="path32" />
        </g>
        <g
           id="g34"
           transform="translate(486.5491,289.9721)">
          <path
             d="m 0,0 2.653,34.698 1.92,40.132 1.189,36.51 v 12.322 C 20.84,123.54 36.561,123.48 52.923,123.48 l 17.582,0.091 26.465,0.091 -1.098,-19.568 -8.699,0.452 c -2.382,0.121 -5.679,0.211 -9.891,0.272 -4.211,0.06 -8.516,0.091 -12.911,0.091 -9.523,0 -15.673,-0.017 -18.45,-0.046 -2.779,-0.03 -6.975,-0.136 -12.59,-0.317 L 31.839,72.385 c 8.367,-0.181 16.794,-0.272 25.285,-0.272 5.862,0 15.756,0.181 29.681,0.545 -0.488,-5.497 -0.914,-12.082 -1.281,-19.75 -16.296,0.18 -25.635,0.271 -28.015,0.271 -7.201,0 -16.174,-0.181 -26.915,-0.543 L 29.106,18.753 39.18,18.663 c 2.929,0 9.647,0.059 20.148,0.18 l 19.875,0.364 13.28,0.633 C 91.871,12.833 91.445,6.22 91.201,0 75.328,0.12 61.014,0.182 48.256,0.182 L 18.13,0.09 Z"
             style="fill:#231f20;fill-opacity:1;fill-rule:nonzero;stroke:none"
             id="path36" />
        </g>
        <g
           id="g38"
           transform="translate(591.6614,289.9721)">
          <path
             d="m 0,0 6.82,8.256 c 2.149,2.544 5.804,7.072 10.966,13.583 L 42.67,53.354 50.503,63.83 39.238,82.077 11.995,123.662 c 5.987,-0.122 11.729,-0.182 17.228,-0.182 4.398,0 9.439,0.06 15.12,0.182 3.325,-7.128 7.103,-14.527 11.337,-22.197 4.233,-7.67 7.493,-13.951 9.778,-18.843 3.788,5.073 9.159,11.763 16.113,20.068 6.954,8.302 12.393,15.293 16.32,20.972 5.005,-0.122 10.07,-0.182 15.197,-0.182 3.295,0 8.362,0.06 15.197,0.182 -4.877,-6.314 -11.776,-15.003 -20.697,-26.066 C 98.668,86.532 90.195,75.659 82.17,64.981 90.574,51.095 104.543,29.435 124.074,0 116.938,0.12 111.754,0.182 108.522,0.182 103.278,0.182 97.638,0.12 91.6,0 88.218,5.905 83.657,13.094 77.919,21.564 72.181,30.033 67.651,36.971 64.328,42.377 60.878,37.641 55.747,31.121 48.938,22.818 42.129,14.515 36.168,6.909 31.054,0 24.397,0.12 19.327,0.182 15.848,0.182 11.999,0.182 6.717,0.12 0,0"
             style="fill:#231f20;fill-opacity:1;fill-rule:nonzero;stroke:none"
             id="path40" />
        </g>
        <g
           id="g42"
           transform="translate(103.2725,229.4766)">
          <path
             d="m 0,0 c 0,-0.11 -0.072,-0.256 -0.217,-0.435 -1.271,-1.512 -2.959,-2.268 -5.066,-2.268 -2.154,0 -3.901,0.735 -5.241,2.206 -1.305,1.423 -1.957,3.218 -1.957,5.387 0,2.098 0.638,3.881 1.916,5.344 1.333,1.534 3.028,2.299 5.086,2.299 2.237,0 3.991,-0.686 5.262,-2.06 0.138,-0.153 0.207,-0.287 0.207,-0.405 0,-0.13 -0.24,-0.618 -0.72,-1.461 C -1.21,7.766 -1.512,7.292 -1.636,7.188 -1.692,7.134 -1.761,7.105 -1.844,7.105 c -0.034,0 -0.207,0.139 -0.517,0.416 -0.373,0.331 -0.74,0.589 -1.098,0.776 -0.546,0.276 -1.112,0.415 -1.699,0.415 -1.015,0 -1.827,-0.38 -2.434,-1.14 -0.56,-0.704 -0.84,-1.574 -0.84,-2.61 0,-1.05 0.28,-1.931 0.84,-2.642 0.607,-0.773 1.419,-1.16 2.434,-1.16 0.6,0 1.17,0.131 1.709,0.394 0.352,0.173 0.711,0.414 1.077,0.725 0.304,0.262 0.473,0.394 0.508,0.394 0.069,0 0.138,-0.038 0.207,-0.114 0.11,-0.124 0.41,-0.556 0.901,-1.295 C -0.252,0.497 0,0.076 0,0"
             style="fill:#231f20;fill-opacity:1;fill-rule:nonzero;stroke:none"
             id="path44" />
        </g>
        <g
           id="g46"
           transform="translate(119.5205,234.4072)">
          <path
             d="M 0,0 C 0,1.036 -0.314,1.916 -0.943,2.642 -1.599,3.401 -2.438,3.781 -3.46,3.781 -4.434,3.781 -5.259,3.387 -5.936,2.6 -6.592,1.84 -6.919,0.967 -6.919,-0.021 c 0,-1.056 0.307,-1.937 0.921,-2.641 0.649,-0.739 1.496,-1.109 2.538,-1.109 0.974,0 1.802,0.391 2.486,1.171 C -0.325,-1.854 0,-0.987 0,0 m 3.926,-0.021 c 0,-2.154 -0.688,-3.96 -2.062,-5.417 -1.402,-1.478 -3.176,-2.216 -5.324,-2.216 -2.134,0 -3.905,0.745 -5.313,2.237 -1.382,1.457 -2.072,3.256 -2.072,5.396 0,2.148 0.69,3.954 2.072,5.417 1.408,1.5 3.179,2.249 5.313,2.249 2.12,0 3.888,-0.749 5.304,-2.249 1.387,-1.477 2.082,-3.283 2.082,-5.417"
             style="fill:#231f20;fill-opacity:1;fill-rule:nonzero;stroke:none"
             id="path48" />
        </g>
        <g
           id="g50"
           transform="translate(143.5161,241.3477)">
          <path
             d="m 0,0 c 0,-0.788 -0.033,-1.971 -0.099,-3.548 -0.065,-1.578 -0.098,-2.764 -0.098,-3.558 v -6.827 c 0,-0.186 -0.1,-0.279 -0.301,-0.279 -0.165,0 -0.416,-0.007 -0.751,-0.02 -0.334,-0.014 -0.584,-0.021 -0.751,-0.021 -0.179,0 -0.448,0.014 -0.807,0.041 -0.36,0.027 -0.629,0.041 -0.808,0.041 -0.125,0 -0.273,0.114 -0.446,0.342 -0.497,0.67 -1.615,2.155 -3.356,4.454 -0.476,0.643 -1.201,1.589 -2.175,2.839 -0.028,0.041 -0.079,0.083 -0.155,0.124 -0.056,-0.049 -0.083,-0.124 -0.083,-0.228 0,-0.801 0.022,-2.003 0.067,-3.605 0.045,-1.602 0.068,-2.804 0.068,-3.605 0,-0.241 -0.094,-0.362 -0.28,-0.362 h -3.584 c -0.2,0 -0.3,0.108 -0.3,0.321 0,0.746 0.036,1.871 0.108,3.377 0.073,1.505 0.109,2.634 0.109,3.387 0,0.794 -0.033,1.981 -0.098,3.564 -0.066,1.581 -0.099,2.765 -0.099,3.552 0,0.152 0.135,0.228 0.404,0.228 0.4,0 0.894,0.028 1.481,0.083 0.139,0.013 0.411,0.058 0.819,0.135 0.345,0.062 0.617,0.093 0.818,0.093 0.083,0 0.211,-0.118 0.383,-0.352 l 3.864,-5.293 c 0.345,-0.477 0.866,-1.174 1.564,-2.093 0.173,-0.214 0.321,-0.321 0.445,-0.321 0.09,0 0.135,0.269 0.135,0.808 0,0.725 -0.04,1.816 -0.119,3.274 -0.08,1.456 -0.119,2.551 -0.119,3.283 0,0.255 0.072,0.383 0.217,0.383 0.415,0 1.04,0.017 1.875,0.052 0.836,0.035 1.461,0.051 1.875,0.051 C -0.066,0.32 0,0.214 0,0"
             style="fill:#231f20;fill-opacity:1;fill-rule:nonzero;stroke:none"
             id="path52" />
        </g>
        <g
           id="g54"
           transform="translate(159.6597,234.4795)">
          <path
             d="m 0,0 c 0,1.167 -0.349,2.12 -1.046,2.859 -0.704,0.767 -1.637,1.15 -2.797,1.15 -1.064,0 -1.595,-0.142 -1.595,-0.425 0,-0.407 -0.007,-1.021 -0.021,-1.838 -0.014,-0.818 -0.02,-1.432 -0.02,-1.839 0,-0.4 0.006,-1.003 0.02,-1.807 0.014,-0.805 0.021,-1.411 0.021,-1.819 0,-0.297 0.552,-0.445 1.657,-0.445 1.195,0 2.134,0.397 2.818,1.191 C -0.321,-2.22 0,-1.229 0,0 m 3.967,0 c 0,-2.03 -0.653,-3.791 -1.958,-5.282 -1.153,-1.333 -2.772,-2.034 -4.858,-2.103 -0.4,-0.014 -1.502,-0.021 -3.304,-0.021 -0.338,0 -0.847,0.01 -1.528,0.031 -0.68,0.021 -1.19,0.031 -1.527,0.031 -0.201,0 -0.301,0.079 -0.301,0.239 0,0.759 0.03,1.9 0.088,3.423 0.059,1.523 0.088,2.663 0.088,3.423 0,0.794 -0.029,1.984 -0.088,3.569 -0.058,1.585 -0.088,2.77 -0.088,3.558 0,0.145 0.1,0.231 0.301,0.259 0.49,0.055 1.294,0.083 2.413,0.083 2.127,0 3.504,-0.031 4.133,-0.094 C -1.025,6.95 0.255,6.536 1.181,5.873 2.051,5.252 2.738,4.382 3.242,3.263 3.725,2.207 3.967,1.119 3.967,0"
             style="fill:#231f20;fill-opacity:1;fill-rule:nonzero;stroke:none"
             id="path56" />
        </g>
        <g
           id="g58"
           transform="translate(174.1045,234.79)">
          <path
             d="m 0,0 c 0,-0.814 0.021,-2.04 0.062,-3.677 0.042,-1.636 0.063,-2.862 0.063,-3.677 0,-0.138 -0.032,-0.224 -0.094,-0.259 -0.013,-0.007 -0.103,-0.021 -0.269,-0.041 -0.449,-0.056 -1.05,-0.083 -1.803,-0.083 -1.008,0 -1.65,0.027 -1.926,0.083 -0.2,0.041 -0.301,0.148 -0.301,0.321 0,-0.11 0.032,0.497 0.094,1.823 0.124,2.796 0.186,4.633 0.186,5.51 0,0.739 -0.024,1.848 -0.072,3.325 -0.048,1.478 -0.073,2.586 -0.073,3.325 0,0.153 0.08,0.228 0.238,0.228 0.214,0 0.538,-0.01 0.969,-0.03 0.431,-0.022 0.755,-0.032 0.968,-0.032 0.214,0 0.53,0.01 0.948,0.032 0.418,0.02 0.734,0.03 0.948,0.03 0.2,0 0.3,-0.075 0.3,-0.228 C 0.238,5.911 0.199,4.803 0.119,3.325 0.04,1.848 0,0.739 0,0"
             style="fill:#231f20;fill-opacity:1;fill-rule:nonzero;stroke:none"
             id="path60" />
        </g>
        <g
           id="g62"
           transform="translate(190.9741,238.499)">
          <path
             d="m 0,0 c 0,-0.139 -0.076,-0.207 -0.228,-0.207 -0.262,0 -1.302,0.052 -3.118,0.155 -0.041,-1.747 -0.062,-2.967 -0.062,-3.657 0,-0.814 0.033,-2.04 0.098,-3.677 0.066,-1.636 0.099,-2.862 0.099,-3.677 0,-0.131 -0.031,-0.214 -0.093,-0.249 -0.021,-0.013 -0.118,-0.031 -0.29,-0.051 -0.415,-0.056 -1.023,-0.083 -1.823,-0.083 -0.891,0 -1.516,0.027 -1.875,0.083 -0.194,0.034 -0.291,0.141 -0.291,0.321 0,0.814 0.035,2.037 0.104,3.667 0.069,1.629 0.104,2.852 0.104,3.666 0,0.539 -0.028,1.74 -0.083,3.605 -1.381,-0.138 -2.482,-0.207 -3.304,-0.207 -0.111,0 -0.166,0.035 -0.166,0.104 0,0.089 0.048,0.355 0.145,0.797 0.11,0.483 0.173,0.777 0.186,0.881 0.021,0.324 0.045,0.648 0.073,0.973 0.048,0.518 0.131,0.777 0.249,0.777 0.013,0 0.062,-0.003 0.145,-0.01 1.118,-0.146 2.772,-0.218 4.961,-0.218 0.622,0 1.768,0.066 3.439,0.197 0.897,0.069 1.35,0.104 1.357,0.104 0.138,0 0.218,-0.009 0.238,-0.026 C -0.114,3.25 -0.1,3.184 -0.093,3.065 -0.093,2.879 -0.1,2.62 -0.114,2.289 -0.128,1.923 -0.135,1.664 -0.135,1.512 -0.135,1.339 -0.112,1.086 -0.067,0.751 -0.022,0.416 0,0.165 0,0"
             style="fill:#231f20;fill-opacity:1;fill-rule:nonzero;stroke:none"
             id="path64" />
        </g>
        <g
           id="g66"
           transform="translate(200.9546,234.79)">
          <path
             d="m 0,0 c 0,-0.814 0.021,-2.04 0.062,-3.677 0.042,-1.636 0.063,-2.862 0.063,-3.677 0,-0.138 -0.032,-0.224 -0.094,-0.259 -0.013,-0.007 -0.103,-0.021 -0.269,-0.041 -0.449,-0.056 -1.05,-0.083 -1.803,-0.083 -1.008,0 -1.65,0.027 -1.926,0.083 -0.2,0.041 -0.301,0.148 -0.301,0.321 0,-0.11 0.032,0.497 0.094,1.823 0.124,2.796 0.186,4.633 0.186,5.51 0,0.739 -0.024,1.848 -0.072,3.325 -0.048,1.478 -0.073,2.586 -0.073,3.325 0,0.153 0.08,0.228 0.238,0.228 0.214,0 0.538,-0.01 0.969,-0.03 0.431,-0.022 0.755,-0.032 0.968,-0.032 0.214,0 0.53,0.01 0.948,0.032 0.418,0.02 0.734,0.03 0.948,0.03 0.2,0 0.3,-0.075 0.3,-0.228 C 0.238,5.911 0.199,4.803 0.119,3.325 0.04,1.848 0,0.739 0,0"
             style="fill:#231f20;fill-opacity:1;fill-rule:nonzero;stroke:none"
             id="path68" />
        </g>
        <g
           id="g70"
           transform="translate(218.1968,234.4072)">
          <path
             d="M 0,0 C 0,1.036 -0.314,1.916 -0.943,2.642 -1.599,3.401 -2.438,3.781 -3.46,3.781 -4.434,3.781 -5.259,3.387 -5.936,2.6 -6.592,1.84 -6.919,0.967 -6.919,-0.021 c 0,-1.056 0.307,-1.937 0.921,-2.641 0.649,-0.739 1.496,-1.109 2.538,-1.109 0.974,0 1.802,0.391 2.486,1.171 C -0.325,-1.854 0,-0.987 0,0 m 3.926,-0.021 c 0,-2.154 -0.688,-3.96 -2.062,-5.417 -1.402,-1.478 -3.176,-2.216 -5.324,-2.216 -2.134,0 -3.905,0.745 -5.313,2.237 -1.382,1.457 -2.072,3.256 -2.072,5.396 0,2.148 0.69,3.954 2.072,5.417 1.408,1.5 3.179,2.249 5.313,2.249 2.12,0 3.888,-0.749 5.304,-2.249 1.387,-1.477 2.082,-3.283 2.082,-5.417"
             style="fill:#231f20;fill-opacity:1;fill-rule:nonzero;stroke:none"
             id="path72" />
        </g>
        <g
           id="g74"
           transform="translate(242.1924,241.3477)">
          <path
             d="m 0,0 c 0,-0.788 -0.033,-1.971 -0.099,-3.548 -0.065,-1.578 -0.098,-2.764 -0.098,-3.558 v -6.827 c 0,-0.186 -0.1,-0.279 -0.301,-0.279 -0.165,0 -0.416,-0.007 -0.751,-0.02 -0.334,-0.014 -0.584,-0.021 -0.751,-0.021 -0.179,0 -0.448,0.014 -0.807,0.041 -0.36,0.027 -0.629,0.041 -0.808,0.041 -0.125,0 -0.273,0.114 -0.446,0.342 -0.497,0.67 -1.615,2.155 -3.356,4.454 -0.476,0.643 -1.201,1.589 -2.175,2.839 -0.028,0.041 -0.079,0.083 -0.155,0.124 -0.056,-0.049 -0.083,-0.124 -0.083,-0.228 0,-0.801 0.022,-2.003 0.067,-3.605 0.045,-1.602 0.068,-2.804 0.068,-3.605 0,-0.241 -0.094,-0.362 -0.28,-0.362 h -3.584 c -0.2,0 -0.3,0.108 -0.3,0.321 0,0.746 0.036,1.871 0.108,3.377 0.073,1.505 0.109,2.634 0.109,3.387 0,0.794 -0.033,1.981 -0.098,3.564 -0.066,1.581 -0.099,2.765 -0.099,3.552 0,0.152 0.135,0.228 0.404,0.228 0.4,0 0.894,0.028 1.481,0.083 0.139,0.013 0.411,0.058 0.819,0.135 0.345,0.062 0.617,0.093 0.818,0.093 0.083,0 0.211,-0.118 0.383,-0.352 l 3.864,-5.293 c 0.345,-0.477 0.866,-1.174 1.564,-2.093 0.173,-0.214 0.321,-0.321 0.445,-0.321 0.09,0 0.135,0.269 0.135,0.808 0,0.725 -0.04,1.816 -0.119,3.274 -0.08,1.456 -0.119,2.551 -0.119,3.283 0,0.255 0.072,0.383 0.217,0.383 0.415,0 1.04,0.017 1.875,0.052 0.836,0.035 1.461,0.051 1.875,0.051 C -0.066,0.32 0,0.214 0,0"
             style="fill:#231f20;fill-opacity:1;fill-rule:nonzero;stroke:none"
             id="path76" />
        </g>
        <g
           id="g78"
           transform="translate(274.2002,227.457)">
          <path
             d="m 0,0 c 0,-0.214 -0.1,-0.321 -0.3,-0.321 h -3.667 c -0.2,0 -0.301,0.121 -0.301,0.362 0,0.697 0.026,1.744 0.078,3.139 0.052,1.394 0.078,2.441 0.078,3.138 0,0.201 -0.031,0.308 -0.093,0.322 C -4.281,6.598 -4.744,5.531 -5.593,3.438 -6.09,2.21 -6.588,0.983 -7.085,-0.238 -7.154,-0.397 -7.24,-0.49 -7.344,-0.519 c -0.034,-0.005 -0.173,-0.009 -0.414,-0.009 -0.359,0 -0.574,0.069 -0.642,0.207 -0.373,0.759 -0.864,1.864 -1.471,3.314 -0.65,1.533 -1.136,2.642 -1.461,3.325 -0.014,0.035 -0.045,0.073 -0.093,0.115 -0.049,-0.063 -0.073,-0.163 -0.073,-0.301 0,-0.677 0.018,-1.692 0.052,-3.045 0.035,-1.354 0.052,-2.369 0.052,-3.046 0,-0.241 -0.097,-0.362 -0.29,-0.362 h -3.46 c -0.138,0 -0.222,0.022 -0.253,0.067 -0.032,0.045 -0.047,0.122 -0.047,0.233 0,0.752 0.036,1.883 0.109,3.392 0.072,1.509 0.108,2.64 0.108,3.393 0,0.8 -0.034,2.302 -0.103,4.506 -0.007,0.573 -0.038,1.425 -0.093,2.558 l -0.011,0.176 c -0.006,0.139 0.139,0.207 0.435,0.207 0.38,0 0.95,0.013 1.709,0.037 0.76,0.023 1.33,0.036 1.709,0.036 0.077,0 0.184,-0.145 0.322,-0.435 l 3.024,-6.64 c 0.214,-0.449 0.394,-0.673 0.539,-0.673 0.076,0 0.238,0.259 0.487,0.776 0.697,1.451 1.73,3.636 3.097,6.557 0.117,0.27 0.245,0.404 0.383,0.404 0.2,0 0.502,-0.01 0.907,-0.031 0.404,-0.02 0.709,-0.031 0.916,-0.031 0.173,0 0.437,0.018 0.793,0.052 0.355,0.035 0.619,0.052 0.792,0.052 0.207,0 0.311,-0.083 0.311,-0.249 0,-0.815 -0.03,-2.032 -0.088,-3.651 -0.059,-1.619 -0.089,-2.837 -0.089,-3.651 0,-0.753 0.032,-1.882 0.094,-3.387 C -0.031,1.871 0,0.746 0,0"
             style="fill:#231f20;fill-opacity:1;fill-rule:nonzero;stroke:none"
             id="path80" />
        </g>
        <g
           id="g82"
           transform="translate(291.2563,234.4072)">
          <path
             d="M 0,0 C 0,1.036 -0.314,1.916 -0.943,2.642 -1.599,3.401 -2.438,3.781 -3.46,3.781 -4.434,3.781 -5.259,3.387 -5.936,2.6 -6.592,1.84 -6.919,0.967 -6.919,-0.021 c 0,-1.056 0.307,-1.937 0.921,-2.641 0.649,-0.739 1.496,-1.109 2.538,-1.109 0.974,0 1.802,0.391 2.486,1.171 C -0.325,-1.854 0,-0.987 0,0 m 3.926,-0.021 c 0,-2.154 -0.688,-3.96 -2.062,-5.417 -1.402,-1.478 -3.176,-2.216 -5.324,-2.216 -2.134,0 -3.905,0.745 -5.313,2.237 -1.382,1.457 -2.072,3.256 -2.072,5.396 0,2.148 0.69,3.954 2.072,5.417 1.408,1.5 3.179,2.249 5.313,2.249 2.12,0 3.888,-0.749 5.304,-2.249 1.387,-1.477 2.082,-3.283 2.082,-5.417"
             style="fill:#231f20;fill-opacity:1;fill-rule:nonzero;stroke:none"
             id="path84" />
        </g>
        <g
           id="g86"
           transform="translate(315.252,241.3477)">
          <path
             d="m 0,0 c 0,-0.788 -0.033,-1.971 -0.099,-3.548 -0.065,-1.578 -0.098,-2.764 -0.098,-3.558 v -6.827 c 0,-0.186 -0.1,-0.279 -0.301,-0.279 -0.165,0 -0.416,-0.007 -0.751,-0.02 -0.334,-0.014 -0.584,-0.021 -0.751,-0.021 -0.179,0 -0.448,0.014 -0.807,0.041 -0.36,0.027 -0.629,0.041 -0.808,0.041 -0.125,0 -0.273,0.114 -0.446,0.342 -0.497,0.67 -1.615,2.155 -3.356,4.454 -0.476,0.643 -1.201,1.589 -2.175,2.839 -0.028,0.041 -0.079,0.083 -0.155,0.124 -0.056,-0.049 -0.083,-0.124 -0.083,-0.228 0,-0.801 0.022,-2.003 0.067,-3.605 0.045,-1.602 0.068,-2.804 0.068,-3.605 0,-0.241 -0.094,-0.362 -0.28,-0.362 h -3.584 c -0.2,0 -0.3,0.108 -0.3,0.321 0,0.746 0.036,1.871 0.108,3.377 0.073,1.505 0.109,2.634 0.109,3.387 0,0.794 -0.033,1.981 -0.098,3.564 -0.066,1.581 -0.099,2.765 -0.099,3.552 0,0.152 0.135,0.228 0.404,0.228 0.4,0 0.894,0.028 1.481,0.083 0.139,0.013 0.411,0.058 0.819,0.135 0.345,0.062 0.617,0.093 0.818,0.093 0.083,0 0.211,-0.118 0.383,-0.352 l 3.864,-5.293 c 0.345,-0.477 0.866,-1.174 1.564,-2.093 0.173,-0.214 0.321,-0.321 0.445,-0.321 0.09,0 0.135,0.269 0.135,0.808 0,0.725 -0.04,1.816 -0.119,3.274 -0.08,1.456 -0.119,2.551 -0.119,3.283 0,0.255 0.072,0.383 0.217,0.383 0.415,0 1.04,0.017 1.875,0.052 0.836,0.035 1.461,0.051 1.875,0.051 C -0.066,0.32 0,0.214 0,0"
             style="fill:#231f20;fill-opacity:1;fill-rule:nonzero;stroke:none"
             id="path88" />
        </g>
        <g
           id="g90"
           transform="translate(326.0503,234.79)">
          <path
             d="m 0,0 c 0,-0.814 0.021,-2.04 0.062,-3.677 0.042,-1.636 0.063,-2.862 0.063,-3.677 0,-0.138 -0.032,-0.224 -0.094,-0.259 -0.013,-0.007 -0.103,-0.021 -0.269,-0.041 -0.449,-0.056 -1.05,-0.083 -1.803,-0.083 -1.008,0 -1.65,0.027 -1.926,0.083 -0.2,0.041 -0.301,0.148 -0.301,0.321 0,-0.11 0.032,0.497 0.094,1.823 0.124,2.796 0.186,4.633 0.186,5.51 0,0.739 -0.024,1.848 -0.072,3.325 -0.048,1.478 -0.073,2.586 -0.073,3.325 0,0.153 0.08,0.228 0.238,0.228 0.214,0 0.538,-0.01 0.969,-0.03 0.431,-0.022 0.755,-0.032 0.968,-0.032 0.214,0 0.53,0.01 0.948,0.032 0.418,0.02 0.734,0.03 0.948,0.03 0.2,0 0.3,-0.075 0.3,-0.228 C 0.238,5.911 0.199,4.803 0.119,3.325 0.04,1.848 0,0.739 0,0"
             style="fill:#231f20;fill-opacity:1;fill-rule:nonzero;stroke:none"
             id="path92" />
        </g>
        <g
           id="g94"
           transform="translate(342.9199,238.499)">
          <path
             d="m 0,0 c 0,-0.139 -0.076,-0.207 -0.228,-0.207 -0.262,0 -1.302,0.052 -3.118,0.155 -0.041,-1.747 -0.062,-2.967 -0.062,-3.657 0,-0.814 0.033,-2.04 0.098,-3.677 0.066,-1.636 0.099,-2.862 0.099,-3.677 0,-0.131 -0.031,-0.214 -0.093,-0.249 -0.021,-0.013 -0.118,-0.031 -0.29,-0.051 -0.415,-0.056 -1.023,-0.083 -1.823,-0.083 -0.891,0 -1.516,0.027 -1.875,0.083 -0.194,0.034 -0.291,0.141 -0.291,0.321 0,0.814 0.035,2.037 0.104,3.667 0.069,1.629 0.104,2.852 0.104,3.666 0,0.539 -0.028,1.74 -0.083,3.605 -1.381,-0.138 -2.482,-0.207 -3.304,-0.207 -0.111,0 -0.166,0.035 -0.166,0.104 0,0.089 0.048,0.355 0.145,0.797 0.11,0.483 0.173,0.777 0.186,0.881 0.021,0.324 0.045,0.648 0.073,0.973 0.048,0.518 0.131,0.777 0.249,0.777 0.013,0 0.062,-0.003 0.145,-0.01 1.118,-0.146 2.772,-0.218 4.961,-0.218 0.622,0 1.768,0.066 3.439,0.197 0.897,0.069 1.35,0.104 1.357,0.104 0.138,0 0.218,-0.009 0.238,-0.026 C -0.114,3.25 -0.1,3.184 -0.093,3.065 -0.093,2.879 -0.1,2.62 -0.114,2.289 -0.128,1.923 -0.135,1.664 -0.135,1.512 -0.135,1.339 -0.112,1.086 -0.067,0.751 -0.022,0.416 0,0.165 0,0"
             style="fill:#231f20;fill-opacity:1;fill-rule:nonzero;stroke:none"
             id="path96" />
        </g>
        <g
           id="g98"
           transform="translate(359.1572,234.4072)">
          <path
             d="M 0,0 C 0,1.036 -0.314,1.916 -0.943,2.642 -1.599,3.401 -2.438,3.781 -3.46,3.781 -4.434,3.781 -5.259,3.387 -5.936,2.6 -6.592,1.84 -6.919,0.967 -6.919,-0.021 c 0,-1.056 0.307,-1.937 0.921,-2.641 0.649,-0.739 1.496,-1.109 2.538,-1.109 0.974,0 1.802,0.391 2.486,1.171 C -0.325,-1.854 0,-0.987 0,0 m 3.926,-0.021 c 0,-2.154 -0.688,-3.96 -2.062,-5.417 -1.402,-1.478 -3.176,-2.216 -5.324,-2.216 -2.134,0 -3.905,0.745 -5.313,2.237 -1.382,1.457 -2.072,3.256 -2.072,5.396 0,2.148 0.69,3.954 2.072,5.417 1.408,1.5 3.179,2.249 5.313,2.249 2.12,0 3.888,-0.749 5.304,-2.249 1.387,-1.477 2.082,-3.283 2.082,-5.417"
             style="fill:#231f20;fill-opacity:1;fill-rule:nonzero;stroke:none"
             id="path100" />
        </g>
        <g
           id="g102"
           transform="translate(377.29,236.5303)">
          <path
             d="M 0,0 C 0,0.843 -0.276,1.427 -0.829,1.751 -1.257,2 -1.927,2.124 -2.838,2.124 c -0.657,0 -1.005,-0.101 -1.046,-0.301 -0.042,-0.234 -0.063,-0.911 -0.063,-2.03 0,-0.158 0.004,-0.394 0.01,-0.704 0.007,-0.311 0.011,-0.542 0.011,-0.694 0,-0.035 0.111,-0.069 0.332,-0.104 0.421,-0.062 0.863,-0.093 1.325,-0.093 C -0.756,-1.802 0,-1.201 0,0 m 4.35,-9.291 c 0,-0.048 -0.069,-0.083 -0.207,-0.104 -0.262,-0.041 -0.922,-0.062 -1.978,-0.062 -0.905,0 -1.519,0.021 -1.844,0.062 -0.152,0.021 -0.238,0.039 -0.259,0.052 -0.041,0.021 -0.09,0.09 -0.145,0.207 -0.104,0.27 -0.255,0.67 -0.456,1.202 -0.269,0.691 -0.69,1.709 -1.264,3.056 -0.124,0.269 -0.41,0.417 -0.859,0.445 0.207,-0.014 -0.149,-0.021 -1.067,-0.021 -0.104,0 -0.155,-0.176 -0.155,-0.527 0,-0.47 0.043,-1.171 0.129,-2.104 0.086,-0.932 0.13,-1.633 0.13,-2.103 0,-0.117 -0.032,-0.186 -0.094,-0.207 l -0.29,-0.02 c -0.408,-0.027 -1.043,-0.042 -1.906,-0.042 -0.987,0 -1.581,0.021 -1.781,0.062 -0.2,0.041 -0.301,0.149 -0.301,0.322 0,0.76 0.037,1.905 0.109,3.438 0.073,1.533 0.109,2.683 0.109,3.449 0,2.922 -0.066,5.201 -0.197,6.837 l -0.01,0.145 c -0.007,0.118 0.101,0.197 0.326,0.238 0.224,0.042 1.279,0.083 3.164,0.125 C -3.218,5.187 -2.2,5.2 -1.44,5.2 0.134,5.2 1.419,4.845 2.413,4.134 3.539,3.332 4.102,2.176 4.102,0.663 4.102,-0.345 3.957,-1.149 3.667,-1.75 3.376,-2.351 2.841,-2.935 2.061,-3.501 1.902,-3.611 1.823,-3.715 1.823,-3.812 c 0,0.007 0.421,-0.859 1.263,-2.599 0.843,-1.74 1.264,-2.7 1.264,-2.88"
             style="fill:#231f20;fill-opacity:1;fill-rule:nonzero;stroke:none"
             id="path104" />
        </g>
        <g
           id="g106"
           transform="translate(391.6831,234.79)">
          <path
             d="m 0,0 c 0,-0.814 0.021,-2.04 0.062,-3.677 0.042,-1.636 0.063,-2.862 0.063,-3.677 0,-0.138 -0.032,-0.224 -0.094,-0.259 -0.013,-0.007 -0.103,-0.021 -0.269,-0.041 -0.449,-0.056 -1.05,-0.083 -1.803,-0.083 -1.008,0 -1.65,0.027 -1.926,0.083 -0.2,0.041 -0.301,0.148 -0.301,0.321 0,-0.11 0.032,0.497 0.094,1.823 0.124,2.796 0.186,4.633 0.186,5.51 0,0.739 -0.024,1.848 -0.072,3.325 -0.048,1.478 -0.073,2.586 -0.073,3.325 0,0.153 0.08,0.228 0.238,0.228 0.214,0 0.538,-0.01 0.969,-0.03 0.431,-0.022 0.755,-0.032 0.968,-0.032 0.214,0 0.53,0.01 0.948,0.032 0.418,0.02 0.734,0.03 0.948,0.03 0.2,0 0.3,-0.075 0.3,-0.228 C 0.238,5.911 0.199,4.803 0.119,3.325 0.04,1.848 0,0.739 0,0"
             style="fill:#231f20;fill-opacity:1;fill-rule:nonzero;stroke:none"
             id="path108" />
        </g>
        <g
           id="g110"
           transform="translate(412.3223,241.3477)">
          <path
             d="m 0,0 c 0,-0.788 -0.033,-1.971 -0.099,-3.548 -0.065,-1.578 -0.097,-2.764 -0.097,-3.558 v -6.827 c 0,-0.186 -0.101,-0.279 -0.301,-0.279 -0.166,0 -0.416,-0.007 -0.751,-0.02 -0.335,-0.014 -0.585,-0.021 -0.751,-0.021 -0.18,0 -0.449,0.014 -0.808,0.041 -0.359,0.027 -0.629,0.041 -0.808,0.041 -0.124,0 -0.273,0.114 -0.446,0.342 -0.497,0.67 -1.615,2.155 -3.355,4.454 -0.477,0.643 -1.202,1.589 -2.176,2.839 -0.027,0.041 -0.079,0.083 -0.155,0.124 -0.056,-0.049 -0.083,-0.124 -0.083,-0.228 0,-0.801 0.022,-2.003 0.067,-3.605 0.045,-1.602 0.068,-2.804 0.068,-3.605 0,-0.241 -0.093,-0.362 -0.28,-0.362 h -3.584 c -0.2,0 -0.3,0.108 -0.3,0.321 0,0.746 0.036,1.871 0.108,3.377 0.073,1.505 0.109,2.634 0.109,3.387 0,0.794 -0.033,1.981 -0.098,3.564 -0.066,1.581 -0.099,2.765 -0.099,3.552 0,0.152 0.135,0.228 0.404,0.228 0.401,0 0.895,0.028 1.482,0.083 0.138,0.013 0.41,0.058 0.818,0.135 0.345,0.062 0.617,0.093 0.819,0.093 0.082,0 0.21,-0.118 0.382,-0.352 l 3.864,-5.293 c 0.345,-0.477 0.867,-1.174 1.564,-2.093 0.173,-0.214 0.321,-0.321 0.445,-0.321 0.09,0 0.135,0.269 0.135,0.808 0,0.725 -0.04,1.816 -0.119,3.274 -0.079,1.456 -0.119,2.551 -0.119,3.283 0,0.255 0.072,0.383 0.218,0.383 0.414,0 1.039,0.017 1.875,0.052 0.835,0.035 1.46,0.051 1.875,0.051 C -0.065,0.32 0,0.214 0,0"
             style="fill:#231f20;fill-opacity:1;fill-rule:nonzero;stroke:none"
             id="path112" />
        </g>
        <g
           id="g114"
           transform="translate(432.5469,227.4668)">
          <path
             d="m 0,0 c 0.015,-0.187 -0.082,-0.279 -0.29,-0.279 -0.131,0 -0.509,0.076 -1.134,0.227 -0.625,0.153 -1.01,0.256 -1.155,0.312 -1.443,-0.567 -2.827,-0.85 -4.153,-0.85 -2.134,0 -3.885,0.711 -5.252,2.134 -1.353,1.401 -2.03,3.173 -2.03,5.313 0,2.19 0.656,4.005 1.968,5.449 1.354,1.492 3.11,2.237 5.273,2.237 1.048,0 2.036,-0.2 2.961,-0.601 1.001,-0.441 1.789,-1.063 2.363,-1.864 0.117,-0.166 0.176,-0.283 0.176,-0.352 0,-0.221 -0.31,-0.716 -0.927,-1.487 -0.618,-0.769 -1.018,-1.154 -1.197,-1.154 -0.041,0 -0.201,0.141 -0.476,0.425 -0.339,0.338 -0.685,0.6 -1.036,0.787 -0.526,0.283 -1.106,0.425 -1.74,0.425 -1.037,0 -1.858,-0.388 -2.466,-1.16 -0.566,-0.712 -0.849,-1.6 -0.849,-2.663 0,-1.126 0.293,-2.016 0.88,-2.672 0.607,-0.677 1.468,-1.015 2.579,-1.015 0.705,0 1.492,0.176 2.362,0.527 -0.02,0.229 -0.083,0.809 -0.186,1.74 -0.09,0.719 -0.135,1.299 -0.135,1.741 0,0.132 0.045,0.211 0.135,0.238 0.034,0.014 0.09,0.021 0.166,0.021 0.2,0 0.502,-0.019 0.906,-0.057 0.403,-0.038 0.709,-0.057 0.916,-0.057 0.222,0 0.553,0.016 0.995,0.047 0.442,0.03 0.773,0.046 0.994,0.046 0.173,0 0.259,-0.113 0.259,-0.342 0,-0.331 -0.019,-0.832 -0.056,-1.502 -0.038,-0.67 -0.058,-1.17 -0.058,-1.502 0,-0.89 0.065,-2.223 0.197,-3.998 z"
             style="fill:#231f20;fill-opacity:1;fill-rule:nonzero;stroke:none"
             id="path116" />
        </g>
        <g
           id="g118"
           transform="translate(454.9531,236.8311)">
          <path
             d="m 0,0 c -0.145,-0.304 -0.391,-0.963 -0.735,-1.979 -0.373,-1.077 -0.56,-1.709 -0.56,-1.895 0,-0.124 0.207,-0.193 0.622,-0.207 0.214,-0.014 0.566,-0.021 1.056,-0.021 0.456,0 0.708,0.055 0.757,0.165 0.013,0.036 0.02,0.083 0.02,0.146 0,0.228 -0.159,0.856 -0.476,1.885 C 0.373,-0.911 0.146,-0.276 0,0 m 7.344,-9.437 c 0,-0.124 -0.086,-0.21 -0.259,-0.258 -0.207,-0.056 -0.85,-0.083 -1.927,-0.083 -0.987,0 -1.623,0.027 -1.905,0.083 -0.235,0.048 -0.384,0.203 -0.446,0.466 -0.235,0.995 -0.417,1.526 -0.549,1.595 -0.111,0.048 -1.035,0.072 -2.776,0.072 -1.174,0 -1.798,-0.031 -1.875,-0.092 -0.117,-0.112 -0.249,-0.481 -0.393,-1.109 -0.132,-0.573 -0.29,-0.884 -0.477,-0.932 -0.235,-0.056 -1.022,-0.083 -2.362,-0.083 -1.056,0 -1.584,0.1 -1.584,0.3 0,0.18 0.78,2.386 2.341,6.62 1.691,4.578 2.61,7.094 2.755,7.55 0.083,0.263 0.179,0.394 0.29,0.394 0.186,0 0.474,-0.018 0.865,-0.052 0.39,-0.035 0.682,-0.052 0.875,-0.052 0.187,0 0.461,0.012 0.823,0.037 0.364,0.024 0.634,0.036 0.814,0.036 0.131,0 0.252,-0.114 0.362,-0.342 C 2.255,3.988 3.242,1.502 4.879,-2.745 6.522,-7.02 7.344,-9.25 7.344,-9.437"
             style="fill:#231f20;fill-opacity:1;fill-rule:nonzero;stroke:none"
             id="path120" />
        </g>
        <g
           id="g122"
           transform="translate(481.8809,241.3477)">
          <path
             d="m 0,0 c 0,-0.788 -0.033,-1.971 -0.099,-3.548 -0.065,-1.578 -0.098,-2.764 -0.098,-3.558 v -6.827 c 0,-0.186 -0.1,-0.279 -0.3,-0.279 -0.166,0 -0.416,-0.007 -0.751,-0.02 -0.335,-0.014 -0.586,-0.021 -0.751,-0.021 -0.18,0 -0.449,0.014 -0.809,0.041 -0.358,0.027 -0.628,0.041 -0.807,0.041 -0.124,0 -0.273,0.114 -0.446,0.342 -0.497,0.67 -1.616,2.155 -3.356,4.454 -0.477,0.643 -1.201,1.589 -2.175,2.839 -0.027,0.041 -0.08,0.083 -0.155,0.124 -0.056,-0.049 -0.083,-0.124 -0.083,-0.228 0,-0.801 0.022,-2.003 0.067,-3.605 0.045,-1.602 0.068,-2.804 0.068,-3.605 0,-0.241 -0.094,-0.362 -0.281,-0.362 h -3.584 c -0.2,0 -0.299,0.108 -0.299,0.321 0,0.746 0.036,1.871 0.108,3.377 0.072,1.505 0.109,2.634 0.109,3.387 0,0.794 -0.033,1.981 -0.098,3.564 -0.066,1.581 -0.099,2.765 -0.099,3.552 0,0.152 0.135,0.228 0.404,0.228 0.401,0 0.894,0.028 1.481,0.083 0.139,0.013 0.411,0.058 0.818,0.135 0.346,0.062 0.618,0.093 0.819,0.093 0.083,0 0.211,-0.118 0.383,-0.352 l 3.864,-5.293 c 0.345,-0.477 0.867,-1.174 1.564,-2.093 0.173,-0.214 0.321,-0.321 0.445,-0.321 0.09,0 0.135,0.269 0.135,0.808 0,0.725 -0.04,1.816 -0.119,3.274 -0.08,1.456 -0.119,2.551 -0.119,3.283 0,0.255 0.072,0.383 0.218,0.383 0.414,0 1.039,0.017 1.874,0.052 0.836,0.035 1.461,0.051 1.875,0.051 C -0.065,0.32 0,0.214 0,0"
             style="fill:#231f20;fill-opacity:1;fill-rule:nonzero;stroke:none"
             id="path124" />
        </g>
        <g
           id="g126"
           transform="translate(498.0244,234.4795)">
          <path
             d="m 0,0 c 0,1.167 -0.349,2.12 -1.046,2.859 -0.704,0.767 -1.637,1.15 -2.797,1.15 -1.063,0 -1.594,-0.142 -1.594,-0.425 0,-0.407 -0.007,-1.021 -0.021,-1.838 -0.015,-0.818 -0.021,-1.432 -0.021,-1.839 0,-0.4 0.006,-1.003 0.021,-1.807 0.014,-0.805 0.021,-1.411 0.021,-1.819 0,-0.297 0.551,-0.445 1.657,-0.445 1.194,0 2.134,0.397 2.817,1.191 C -0.32,-2.22 0,-1.229 0,0 m 3.968,0 c 0,-2.03 -0.653,-3.791 -1.958,-5.282 -1.154,-1.333 -2.773,-2.034 -4.859,-2.103 -0.4,-0.014 -1.502,-0.021 -3.303,-0.021 -0.339,0 -0.848,0.01 -1.529,0.031 -0.679,0.021 -1.189,0.031 -1.527,0.031 -0.2,0 -0.301,0.079 -0.301,0.239 0,0.759 0.03,1.9 0.088,3.423 0.059,1.523 0.089,2.663 0.089,3.423 0,0.794 -0.03,1.984 -0.089,3.569 -0.058,1.585 -0.088,2.77 -0.088,3.558 0,0.145 0.101,0.231 0.301,0.259 0.49,0.055 1.295,0.083 2.413,0.083 2.127,0 3.505,-0.031 4.133,-0.094 C -1.025,6.95 0.256,6.536 1.182,5.873 2.052,5.252 2.738,4.382 3.242,3.263 3.726,2.207 3.968,1.119 3.968,0"
             style="fill:#231f20;fill-opacity:1;fill-rule:nonzero;stroke:none"
             id="path128" />
        </g>
        <g
           id="g130"
           transform="translate(524.5527,236.8311)">
          <path
             d="m 0,0 c -0.145,-0.304 -0.391,-0.963 -0.735,-1.979 -0.373,-1.077 -0.56,-1.709 -0.56,-1.895 0,-0.124 0.207,-0.193 0.622,-0.207 0.214,-0.014 0.566,-0.021 1.056,-0.021 0.456,0 0.708,0.055 0.757,0.165 0.013,0.036 0.02,0.083 0.02,0.146 0,0.228 -0.159,0.856 -0.476,1.885 C 0.373,-0.911 0.146,-0.276 0,0 m 7.344,-9.437 c 0,-0.124 -0.086,-0.21 -0.259,-0.258 -0.207,-0.056 -0.85,-0.083 -1.927,-0.083 -0.987,0 -1.623,0.027 -1.905,0.083 -0.235,0.048 -0.384,0.203 -0.446,0.466 -0.235,0.995 -0.417,1.526 -0.549,1.595 -0.111,0.048 -1.035,0.072 -2.776,0.072 -1.174,0 -1.798,-0.031 -1.875,-0.092 -0.117,-0.112 -0.249,-0.481 -0.393,-1.109 -0.132,-0.573 -0.29,-0.884 -0.477,-0.932 -0.235,-0.056 -1.022,-0.083 -2.362,-0.083 -1.056,0 -1.584,0.1 -1.584,0.3 0,0.18 0.78,2.386 2.341,6.62 1.691,4.578 2.61,7.094 2.755,7.55 0.083,0.263 0.179,0.394 0.29,0.394 0.186,0 0.474,-0.018 0.865,-0.052 0.39,-0.035 0.682,-0.052 0.875,-0.052 0.187,0 0.461,0.012 0.823,0.037 0.364,0.024 0.634,0.036 0.814,0.036 0.131,0 0.252,-0.114 0.362,-0.342 C 2.255,3.988 3.242,1.502 4.879,-2.745 6.522,-7.02 7.344,-9.25 7.344,-9.437"
             style="fill:#231f20;fill-opacity:1;fill-rule:nonzero;stroke:none"
             id="path132" />
        </g>
        <g
           id="g134"
           transform="translate(549.9883,232.2217)">
          <path
             d="m 0,0 c 0,-1.761 -0.21,-2.963 -0.632,-3.604 -0.773,-1.174 -2.703,-1.761 -5.79,-1.761 -1.394,0 -2.469,0.106 -3.222,0.32 -1.201,0.346 -1.981,1.005 -2.34,1.979 -0.18,0.476 -0.269,1.326 -0.269,2.548 0,0.283 0.01,0.705 0.03,1.264 0.022,0.559 0.032,0.977 0.032,1.253 0,0.801 -0.038,2.003 -0.115,3.605 -0.075,1.602 -0.113,2.8 -0.113,3.594 0,0.166 0.072,0.248 0.218,0.248 0.421,0 1.057,-0.016 1.911,-0.051 0.852,-0.035 1.489,-0.052 1.91,-0.052 0.173,0 0.26,-0.076 0.26,-0.228 0,-0.911 -0.03,-2.277 -0.089,-4.096 -0.059,-1.82 -0.088,-3.186 -0.088,-4.097 0,-1.084 0.114,-1.817 0.342,-2.196 0.304,-0.518 0.939,-0.777 1.906,-0.777 1.416,0 2.123,0.687 2.123,2.062 0,1.001 -0.023,2.503 -0.072,4.506 -0.048,2.002 -0.072,3.504 -0.072,4.505 0,0.214 0.086,0.321 0.258,0.321 0.408,0 1.023,0.017 1.844,0.052 0.822,0.035 1.437,0.051 1.844,0.051 0.2,0 0.301,-0.082 0.301,-0.248 C 0.177,8.404 0.144,7.206 0.078,5.604 0.013,4.002 -0.021,2.8 -0.021,1.999 -0.021,1.778 -0.017,1.445 -0.01,1 -0.003,0.554 0,0.221 0,0"
             style="fill:#231f20;fill-opacity:1;fill-rule:nonzero;stroke:none"
             id="path136" />
        </g>
        <g
           id="g138"
           transform="translate(566.7852,238.499)">
          <path
             d="m 0,0 c 0,-0.139 -0.076,-0.207 -0.228,-0.207 -0.262,0 -1.301,0.052 -3.118,0.155 -0.042,-1.747 -0.062,-2.967 -0.062,-3.657 0,-0.814 0.033,-2.04 0.098,-3.677 0.066,-1.636 0.099,-2.862 0.099,-3.677 0,-0.131 -0.031,-0.214 -0.094,-0.249 -0.02,-0.013 -0.117,-0.031 -0.29,-0.051 -0.414,-0.056 -1.021,-0.083 -1.822,-0.083 -0.892,0 -1.517,0.027 -1.875,0.083 -0.193,0.034 -0.29,0.141 -0.29,0.321 0,0.814 0.034,2.037 0.103,3.667 0.069,1.629 0.104,2.852 0.104,3.666 0,0.539 -0.028,1.74 -0.083,3.605 -1.381,-0.138 -2.482,-0.207 -3.305,-0.207 -0.11,0 -0.165,0.035 -0.165,0.104 0,0.089 0.048,0.355 0.145,0.797 0.11,0.483 0.173,0.777 0.186,0.881 0.021,0.324 0.045,0.648 0.073,0.973 0.048,0.518 0.131,0.777 0.249,0.777 0.013,0 0.062,-0.003 0.144,-0.01 1.119,-0.146 2.773,-0.218 4.962,-0.218 0.622,0 1.768,0.066 3.44,0.197 0.897,0.069 1.349,0.104 1.356,0.104 0.138,0 0.218,-0.009 0.238,-0.026 0.021,-0.018 0.034,-0.084 0.041,-0.203 0,-0.186 -0.007,-0.445 -0.02,-0.776 -0.014,-0.366 -0.021,-0.625 -0.021,-0.777 0,-0.173 0.023,-0.426 0.068,-0.761 C -0.022,0.416 0,0.165 0,0"
             style="fill:#231f20;fill-opacity:1;fill-rule:nonzero;stroke:none"
             id="path140" />
        </g>
        <g
           id="g142"
           transform="translate(583.0225,234.4072)">
          <path
             d="M 0,0 C 0,1.036 -0.314,1.916 -0.942,2.642 -1.599,3.401 -2.438,3.781 -3.46,3.781 -4.434,3.781 -5.259,3.387 -5.936,2.6 -6.592,1.84 -6.92,0.967 -6.92,-0.021 c 0,-1.056 0.308,-1.937 0.922,-2.641 0.649,-0.739 1.495,-1.109 2.538,-1.109 0.974,0 1.803,0.391 2.486,1.171 C -0.325,-1.854 0,-0.987 0,0 m 3.926,-0.021 c 0,-2.154 -0.688,-3.96 -2.062,-5.417 -1.402,-1.478 -3.176,-2.216 -5.324,-2.216 -2.134,0 -3.905,0.745 -5.313,2.237 -1.382,1.457 -2.073,3.256 -2.073,5.396 0,2.148 0.691,3.954 2.073,5.417 1.408,1.5 3.179,2.249 5.313,2.249 2.12,0 3.888,-0.749 5.304,-2.249 1.387,-1.477 2.082,-3.283 2.082,-5.417"
             style="fill:#231f20;fill-opacity:1;fill-rule:nonzero;stroke:none"
             id="path144" />
        </g>
        <g
           id="g146"
           transform="translate(608.6025,227.457)">
          <path
             d="m 0,0 c 0,-0.214 -0.101,-0.321 -0.301,-0.321 h -3.667 c -0.2,0 -0.3,0.121 -0.3,0.362 0,0.697 0.026,1.744 0.078,3.139 0.051,1.394 0.078,2.441 0.078,3.138 0,0.201 -0.032,0.308 -0.094,0.322 C -4.282,6.598 -4.744,5.531 -5.594,3.438 -6.091,2.21 -6.588,0.983 -7.085,-0.238 c -0.069,-0.159 -0.156,-0.252 -0.26,-0.281 -0.034,-0.005 -0.172,-0.009 -0.414,-0.009 -0.359,0 -0.573,0.069 -0.641,0.207 -0.373,0.759 -0.865,1.864 -1.472,3.314 -0.649,1.533 -1.136,2.642 -1.46,3.325 -0.014,0.035 -0.045,0.073 -0.094,0.115 -0.048,-0.063 -0.072,-0.163 -0.072,-0.301 0,-0.677 0.018,-1.692 0.052,-3.045 0.034,-1.354 0.051,-2.369 0.051,-3.046 0,-0.241 -0.096,-0.362 -0.29,-0.362 h -3.46 c -0.137,0 -0.222,0.022 -0.252,0.067 -0.032,0.045 -0.047,0.122 -0.047,0.233 0,0.752 0.036,1.883 0.108,3.392 0.072,1.509 0.109,2.64 0.109,3.393 0,0.8 -0.035,2.302 -0.103,4.506 -0.008,0.573 -0.038,1.425 -0.094,2.558 l -0.011,0.176 c -0.006,0.139 0.139,0.207 0.436,0.207 0.38,0 0.949,0.013 1.709,0.037 0.76,0.023 1.329,0.036 1.709,0.036 0.076,0 0.183,-0.145 0.321,-0.435 l 3.025,-6.64 c 0.214,-0.449 0.393,-0.673 0.539,-0.673 0.075,0 0.238,0.259 0.486,0.776 0.697,1.451 1.731,3.636 3.098,6.557 0.117,0.27 0.245,0.404 0.383,0.404 0.2,0 0.502,-0.01 0.906,-0.031 0.404,-0.02 0.71,-0.031 0.917,-0.031 0.173,0 0.436,0.018 0.792,0.052 0.356,0.035 0.62,0.052 0.793,0.052 0.207,0 0.31,-0.083 0.31,-0.249 0,-0.815 -0.029,-2.032 -0.088,-3.651 -0.058,-1.619 -0.088,-2.837 -0.088,-3.651 0,-0.753 0.032,-1.882 0.093,-3.387 C -0.031,1.871 0,0.746 0,0"
             style="fill:#231f20;fill-opacity:1;fill-rule:nonzero;stroke:none"
             id="path148" />
        </g>
        <g
           id="g150"
           transform="translate(621.5146,236.8311)">
          <path
             d="m 0,0 c -0.145,-0.304 -0.391,-0.963 -0.735,-1.979 -0.373,-1.077 -0.56,-1.709 -0.56,-1.895 0,-0.124 0.207,-0.193 0.622,-0.207 0.214,-0.014 0.566,-0.021 1.056,-0.021 0.456,0 0.708,0.055 0.757,0.165 0.013,0.036 0.02,0.083 0.02,0.146 0,0.228 -0.159,0.856 -0.476,1.885 C 0.373,-0.911 0.146,-0.276 0,0 m 7.344,-9.437 c 0,-0.124 -0.086,-0.21 -0.259,-0.258 -0.207,-0.056 -0.85,-0.083 -1.927,-0.083 -0.987,0 -1.623,0.027 -1.905,0.083 -0.235,0.048 -0.384,0.203 -0.446,0.466 -0.235,0.995 -0.417,1.526 -0.549,1.595 -0.111,0.048 -1.035,0.072 -2.776,0.072 -1.174,0 -1.798,-0.031 -1.875,-0.092 -0.117,-0.112 -0.249,-0.481 -0.393,-1.109 -0.132,-0.573 -0.29,-0.884 -0.477,-0.932 -0.235,-0.056 -1.022,-0.083 -2.362,-0.083 -1.056,0 -1.584,0.1 -1.584,0.3 0,0.18 0.78,2.386 2.341,6.62 1.691,4.578 2.61,7.094 2.755,7.55 0.083,0.263 0.179,0.394 0.29,0.394 0.186,0 0.474,-0.018 0.865,-0.052 0.39,-0.035 0.682,-0.052 0.875,-0.052 0.187,0 0.461,0.012 0.823,0.037 0.364,0.024 0.634,0.036 0.814,0.036 0.131,0 0.252,-0.114 0.362,-0.342 C 2.255,3.988 3.242,1.502 4.879,-2.745 6.522,-7.02 7.344,-9.25 7.344,-9.437"
             style="fill:#231f20;fill-opacity:1;fill-rule:nonzero;stroke:none"
             id="path152" />
        </g>
        <g
           id="g154"
           transform="translate(644.6709,238.499)">
          <path
             d="m 0,0 c 0,-0.139 -0.076,-0.207 -0.228,-0.207 -0.262,0 -1.301,0.052 -3.118,0.155 -0.042,-1.747 -0.062,-2.967 -0.062,-3.657 0,-0.814 0.033,-2.04 0.098,-3.677 0.066,-1.636 0.099,-2.862 0.099,-3.677 0,-0.131 -0.031,-0.214 -0.094,-0.249 -0.02,-0.013 -0.117,-0.031 -0.29,-0.051 -0.414,-0.056 -1.021,-0.083 -1.822,-0.083 -0.892,0 -1.517,0.027 -1.875,0.083 -0.193,0.034 -0.29,0.141 -0.29,0.321 0,0.814 0.034,2.037 0.103,3.667 0.069,1.629 0.104,2.852 0.104,3.666 0,0.539 -0.028,1.74 -0.083,3.605 -1.381,-0.138 -2.482,-0.207 -3.305,-0.207 -0.11,0 -0.165,0.035 -0.165,0.104 0,0.089 0.048,0.355 0.145,0.797 0.11,0.483 0.173,0.777 0.186,0.881 0.021,0.324 0.045,0.648 0.073,0.973 0.048,0.518 0.131,0.777 0.249,0.777 0.013,0 0.062,-0.003 0.144,-0.01 1.119,-0.146 2.773,-0.218 4.962,-0.218 0.622,0 1.768,0.066 3.44,0.197 0.897,0.069 1.349,0.104 1.356,0.104 0.138,0 0.218,-0.009 0.238,-0.026 0.021,-0.018 0.034,-0.084 0.041,-0.203 0,-0.186 -0.007,-0.445 -0.02,-0.776 -0.014,-0.366 -0.021,-0.625 -0.021,-0.777 0,-0.173 0.023,-0.426 0.068,-0.761 C -0.022,0.416 0,0.165 0,0"
             style="fill:#231f20;fill-opacity:1;fill-rule:nonzero;stroke:none"
             id="path156" />
        </g>
        <g
           id="g158"
           transform="translate(654.6514,234.79)">
          <path
             d="m 0,0 c 0,-0.814 0.021,-2.04 0.062,-3.677 0.042,-1.636 0.063,-2.862 0.063,-3.677 0,-0.138 -0.031,-0.224 -0.094,-0.259 -0.013,-0.007 -0.103,-0.021 -0.269,-0.041 -0.449,-0.056 -1.05,-0.083 -1.802,-0.083 -1.009,0 -1.65,0.027 -1.927,0.083 -0.2,0.041 -0.301,0.148 -0.301,0.321 0,-0.11 0.032,0.497 0.094,1.823 0.124,2.796 0.187,4.633 0.187,5.51 0,0.739 -0.025,1.848 -0.074,3.325 -0.047,1.478 -0.072,2.586 -0.072,3.325 0,0.153 0.079,0.228 0.238,0.228 0.214,0 0.538,-0.01 0.969,-0.03 0.432,-0.022 0.754,-0.032 0.969,-0.032 0.214,0 0.529,0.01 0.947,0.032 0.418,0.02 0.734,0.03 0.948,0.03 0.201,0 0.3,-0.075 0.3,-0.228 C 0.238,5.911 0.198,4.803 0.119,3.325 0.04,1.848 0,0.739 0,0"
             style="fill:#231f20;fill-opacity:1;fill-rule:nonzero;stroke:none"
             id="path160" />
        </g>
        <g
           id="g162"
           transform="translate(671.8945,234.4072)">
          <path
             d="M 0,0 C 0,1.036 -0.314,1.916 -0.942,2.642 -1.599,3.401 -2.438,3.781 -3.46,3.781 -4.434,3.781 -5.259,3.387 -5.936,2.6 -6.592,1.84 -6.92,0.967 -6.92,-0.021 c 0,-1.056 0.308,-1.937 0.922,-2.641 0.649,-0.739 1.495,-1.109 2.538,-1.109 0.974,0 1.803,0.391 2.486,1.171 C -0.325,-1.854 0,-0.987 0,0 m 3.926,-0.021 c 0,-2.154 -0.688,-3.96 -2.062,-5.417 -1.402,-1.478 -3.176,-2.216 -5.324,-2.216 -2.134,0 -3.905,0.745 -5.313,2.237 -1.382,1.457 -2.073,3.256 -2.073,5.396 0,2.148 0.691,3.954 2.073,5.417 1.408,1.5 3.179,2.249 5.313,2.249 2.12,0 3.888,-0.749 5.304,-2.249 1.387,-1.477 2.082,-3.283 2.082,-5.417"
             style="fill:#231f20;fill-opacity:1;fill-rule:nonzero;stroke:none"
             id="path164" />
        </g>
        <g
           id="g166"
           transform="translate(695.8896,241.3477)">
          <path
             d="m 0,0 c 0,-0.788 -0.033,-1.971 -0.099,-3.548 -0.065,-1.578 -0.098,-2.764 -0.098,-3.558 v -6.827 c 0,-0.186 -0.1,-0.279 -0.3,-0.279 -0.166,0 -0.416,-0.007 -0.751,-0.02 -0.335,-0.014 -0.586,-0.021 -0.751,-0.021 -0.18,0 -0.449,0.014 -0.809,0.041 -0.358,0.027 -0.628,0.041 -0.807,0.041 -0.124,0 -0.273,0.114 -0.446,0.342 -0.497,0.67 -1.616,2.155 -3.356,4.454 -0.477,0.643 -1.201,1.589 -2.175,2.839 -0.027,0.041 -0.08,0.083 -0.155,0.124 -0.056,-0.049 -0.083,-0.124 -0.083,-0.228 0,-0.801 0.022,-2.003 0.067,-3.605 0.045,-1.602 0.068,-2.804 0.068,-3.605 0,-0.241 -0.094,-0.362 -0.281,-0.362 h -3.584 c -0.2,0 -0.299,0.108 -0.299,0.321 0,0.746 0.036,1.871 0.108,3.377 0.072,1.505 0.109,2.634 0.109,3.387 0,0.794 -0.033,1.981 -0.098,3.564 -0.066,1.581 -0.099,2.765 -0.099,3.552 0,0.152 0.135,0.228 0.404,0.228 0.401,0 0.894,0.028 1.481,0.083 0.139,0.013 0.411,0.058 0.818,0.135 0.346,0.062 0.618,0.093 0.819,0.093 0.083,0 0.211,-0.118 0.383,-0.352 l 3.864,-5.293 c 0.345,-0.477 0.867,-1.174 1.564,-2.093 0.173,-0.214 0.321,-0.321 0.445,-0.321 0.09,0 0.135,0.269 0.135,0.808 0,0.725 -0.04,1.816 -0.119,3.274 -0.08,1.456 -0.119,2.551 -0.119,3.283 0,0.255 0.072,0.383 0.218,0.383 0.414,0 1.039,0.017 1.874,0.052 0.836,0.035 1.461,0.051 1.875,0.051 C -0.065,0.32 0,0.214 0,0"
             style="fill:#231f20;fill-opacity:1;fill-rule:nonzero;stroke:none"
             id="path168" />
        </g>
      </g>
    </g>
  </g>
</svg>
